<svg id="Layer_1" data-name="Layer 1" xmlns="http://www.w3.org/2000/svg" viewBox="0 0 1471.38 343.64"><defs><style>.cls-1{fill:none;}.cls-2{fill:#f8b500;}.cls-3{fill:#54c2c0;}</style></defs><path d="M736.76,507.47a3.38,3.38,0,0,1,3.4-3.4,3.36,3.36,0,0,1,3.4,3.4v30.81h35V507.47a3.4,3.4,0,1,1,6.8,0v63.26a3.4,3.4,0,1,1-6.8,0V545.08h-35v25.65a3.4,3.4,0,1,1-6.8,0Z" transform="translate(-48.47 -337.21)"/><path d="M844.87,564.15a34.4,34.4,0,0,1-8.71,7,22,22,0,0,1-11,2.9,26.44,26.44,0,0,1-18.64-7.45,25.35,25.35,0,0,1-5.7-8.34,26.2,26.2,0,0,1-2.09-10.52,26.73,26.73,0,0,1,2-10.36,26.29,26.29,0,0,1,24.62-16.29,24.36,24.36,0,0,1,10,2.14,28.12,28.12,0,0,1,8.39,5.76,27.52,27.52,0,0,1,5.75,8.44,25.09,25.09,0,0,1,2.14,10.31v23.13a3.4,3.4,0,1,1-6.8,0Zm0-16.44a19.5,19.5,0,0,0-1.53-7.68,19.52,19.52,0,0,0-10.53-10.52,19.32,19.32,0,0,0-7.67-1.54,18.91,18.91,0,0,0-7.62,1.54A19.74,19.74,0,0,0,807,540a19.5,19.5,0,0,0-1.53,7.68,19.14,19.14,0,0,0,1.53,7.62,19.87,19.87,0,0,0,10.48,10.47,19.62,19.62,0,0,0,15.07.05,19.51,19.51,0,0,0,6.2-4.11,20,20,0,0,0,4.27-6.19A21.71,21.71,0,0,0,844.87,547.71Z" transform="translate(-48.47 -337.21)"/><path d="M886.76,521.17a22.28,22.28,0,0,1,7.89,1.32,29.22,29.22,0,0,1,6,3,18.11,18.11,0,0,1,3.9,3.4,5.08,5.08,0,0,1,1.37,2.58,2.69,2.69,0,0,1-1,2.08,3.21,3.21,0,0,1-2.19.88,3.3,3.3,0,0,1-2.42-1,22.94,22.94,0,0,0-6.25-3.89,19.2,19.2,0,0,0-7.56-1.48,18.91,18.91,0,0,0-7.62,1.54,19.68,19.68,0,0,0-10.47,10.52,19.33,19.33,0,0,0-1.54,7.68,19,19,0,0,0,1.54,7.62,19.81,19.81,0,0,0,10.47,10.47,19.89,19.89,0,0,0,15.18.05,20.07,20.07,0,0,0,6.25-4.11,3.3,3.3,0,0,1,2.42-1,3.44,3.44,0,0,1,2.35.94,3,3,0,0,1,1,2.35,5.19,5.19,0,0,1-1.27,2.58,14.46,14.46,0,0,1-3.78,3.34,26.63,26.63,0,0,1-6.19,2.86,27,27,0,0,1-8.39,1.2,26.48,26.48,0,0,1-18.64-7.45,25.5,25.5,0,0,1-5.7-8.34,26.47,26.47,0,0,1,5.53-29.11,27.47,27.47,0,0,1,8.45-5.7A28.86,28.86,0,0,1,886.76,521.17Z" transform="translate(-48.47 -337.21)"/><path d="M918.23,508.56a4.49,4.49,0,1,1,1.31,3.18A4.33,4.33,0,0,1,918.23,508.56Zm1.09,15.68a3.4,3.4,0,1,1,6.8,0v46.49a3.4,3.4,0,1,1-6.8,0Z" transform="translate(-48.47 -337.21)"/><path d="M941.8,550.89a18.6,18.6,0,0,0,2.3,6.52,19.73,19.73,0,0,0,10.2,8.66,19.82,19.82,0,0,0,14.47-.22,20.07,20.07,0,0,0,6.25-4.11,3.42,3.42,0,0,1,4.83,4.83,20.57,20.57,0,0,1-8.17,5.75,29.67,29.67,0,0,1-10.47,1.7,26.48,26.48,0,0,1-18.64-7.45,25.5,25.5,0,0,1-5.7-8.34,26.2,26.2,0,0,1-2.09-10.52,25.93,25.93,0,0,1,2-10.25,26.23,26.23,0,0,1,5.59-8.34,27.47,27.47,0,0,1,8.45-5.7,29.06,29.06,0,0,1,10.58-2.36,24.53,24.53,0,0,1,9.92,2.09,27.11,27.11,0,0,1,8.39,5.7,28.7,28.7,0,0,1,5.81,8.39,24.25,24.25,0,0,1,2.19,10.25,3,3,0,0,1-1.09,2.52,3.64,3.64,0,0,1-2.31.88Zm38.82-6.8a19.92,19.92,0,0,0-6.75-11.46,21,21,0,0,0-5.81-3.4,19.28,19.28,0,0,0-13.71,0,21.18,21.18,0,0,0-5.81,3.4,18.78,18.78,0,0,0-4.27,5.1,20.31,20.31,0,0,0-2.36,6.36Z" transform="translate(-48.47 -337.21)"/><path d="M1000.68,524.24a3.4,3.4,0,1,1,6.8,0v1.43a20.34,20.34,0,0,1,5.81-3.51,18.65,18.65,0,0,1,7-1.32,19.49,19.49,0,0,1,7.67,1.54,19.52,19.52,0,0,1,10.53,10.52,19.57,19.57,0,0,1,1.53,7.68v30.15a3.4,3.4,0,1,1-6.8,0V540.58a12.13,12.13,0,0,0-1-5,13.52,13.52,0,0,0-2.79-4.11,12.91,12.91,0,0,0-9.1-3.73,12.38,12.38,0,0,0-4.94,1,13.91,13.91,0,0,0-4.06,2.63,11.78,11.78,0,0,0-2.74,3.89,13.29,13.29,0,0,0-1.09,4.77v30.7a3.4,3.4,0,1,1-6.8,0Z" transform="translate(-48.47 -337.21)"/><path d="M1094.76,507.47a3.41,3.41,0,0,1,5.81-2.41,3.25,3.25,0,0,1,1,2.41v63.26a3.25,3.25,0,0,1-1,2.41,3.4,3.4,0,0,1-5.81-2.41v-5.15l-1,1a26.38,26.38,0,0,1-8.44,5.48,26.81,26.81,0,0,1-10.2,2,26,26,0,0,1-10.42-2.08,26.27,26.27,0,0,1-8.38-5.7,27.61,27.61,0,0,1-5.65-8.39,25.89,25.89,0,0,1,0-20.45,27.7,27.7,0,0,1,14.15-14.2,24.33,24.33,0,0,1,10-2.14,23.75,23.75,0,0,1,11.18,3.13,36.2,36.2,0,0,1,8.67,6.85Zm0,40.24a22.4,22.4,0,0,0-1.81-7.9,20.43,20.43,0,0,0-4.22-6.25,19.36,19.36,0,0,0-6.14-4.11,19,19,0,0,0-7.46-1.48,19.37,19.37,0,0,0-7.68,1.54A19.55,19.55,0,0,0,1056.93,540a19.33,19.33,0,0,0-1.54,7.68,19,19,0,0,0,1.54,7.62,19.87,19.87,0,0,0,4.22,6.25,19.71,19.71,0,0,0,14,5.75,19.14,19.14,0,0,0,7.62-1.53,19.81,19.81,0,0,0,10.47-10.47A19.15,19.15,0,0,0,1094.76,547.71Z" transform="translate(-48.47 -337.21)"/><path d="M1155.72,564.15a34.28,34.28,0,0,1-8.72,7,22,22,0,0,1-11,2.9,26.48,26.48,0,0,1-18.64-7.45,25.66,25.66,0,0,1-5.7-8.34,26.2,26.2,0,0,1-2.08-10.52,26.55,26.55,0,0,1,2-10.36,25.93,25.93,0,0,1,14-14.2,26.64,26.64,0,0,1,10.58-2.09,24.37,24.37,0,0,1,10,2.14,27.94,27.94,0,0,1,8.38,5.76,27.55,27.55,0,0,1,5.76,8.44,25.09,25.09,0,0,1,2.14,10.31v23.13a3.4,3.4,0,1,1-6.8,0Zm0-16.44a19.33,19.33,0,0,0-1.54-7.68,19.55,19.55,0,0,0-10.52-10.52A19.33,19.33,0,0,0,1136,528a19,19,0,0,0-7.62,1.54,19.87,19.87,0,0,0-6.25,4.22,19.71,19.71,0,0,0-5.75,14,19.14,19.14,0,0,0,1.53,7.62,19.81,19.81,0,0,0,10.47,10.47,19.14,19.14,0,0,0,7.62,1.53,18.92,18.92,0,0,0,7.46-1.48,19.47,19.47,0,0,0,6.19-4.11,19.82,19.82,0,0,0,4.28-6.19A21.92,21.92,0,0,0,1155.72,547.71Z" transform="translate(-48.47 -337.21)"/><path d="M1195.3,507.47a3.38,3.38,0,0,1,3.4-3.4H1232a3.4,3.4,0,1,1,0,6.8H1202.1v24.45h20a3.4,3.4,0,1,1,0,6.8h-20v25.21H1232a3.4,3.4,0,1,1,0,6.8H1198.7a3.38,3.38,0,0,1-3.4-3.4Z" transform="translate(-48.47 -337.21)"/><path d="M1248.7,507.47a3.41,3.41,0,0,1,5.81-2.41,3.25,3.25,0,0,1,1,2.41v63.26a3.36,3.36,0,0,1-3.39,3.4,3.36,3.36,0,0,1-3.4-3.4Z" transform="translate(-48.47 -337.21)"/><path d="M1288.83,507.47a3.36,3.36,0,0,1,3.39-3.4h33.45a3.4,3.4,0,1,1,0,6.8h-30.05v24.45h19a3.4,3.4,0,1,1,0,6.8h-19v28.61a3.41,3.41,0,0,1-5.81,2.41,3.25,3.25,0,0,1-1-2.41Z" transform="translate(-48.47 -337.21)"/><path d="M1335.1,524.24a3.41,3.41,0,0,1,5.81-2.41,3.27,3.27,0,0,1,1,2.41v5.38a28.81,28.81,0,0,1,8.45-6.31,23.74,23.74,0,0,1,10.74-2.47,3.91,3.91,0,0,1,2.8,1,3.32,3.32,0,0,1,0,4.83,4,4,0,0,1-2.8,1,17.5,17.5,0,0,0-7.34,1.54,19.54,19.54,0,0,0-6,4.16,21.81,21.81,0,0,0-4.17,6,18.06,18.06,0,0,0-1.7,7.13v24.23a3.25,3.25,0,0,1-1,2.41,3.4,3.4,0,0,1-5.81-2.41Z" transform="translate(-48.47 -337.21)"/><path d="M1415,564.15a34.28,34.28,0,0,1-8.72,7,22,22,0,0,1-11,2.9,26.48,26.48,0,0,1-18.64-7.45,25.66,25.66,0,0,1-5.7-8.34,26.2,26.2,0,0,1-2.08-10.52,26.55,26.55,0,0,1,2-10.36,25.93,25.93,0,0,1,14-14.2,26.64,26.64,0,0,1,10.58-2.09,24.33,24.33,0,0,1,10,2.14,27.7,27.7,0,0,1,14.15,14.2,25.25,25.25,0,0,1,2.14,10.31v23.13a3.4,3.4,0,1,1-6.8,0Zm0-16.44a19.33,19.33,0,0,0-1.54-7.68A19.55,19.55,0,0,0,1403,529.51a19.33,19.33,0,0,0-7.68-1.54,19,19,0,0,0-7.62,1.54,19.87,19.87,0,0,0-6.25,4.22,19.71,19.71,0,0,0-5.75,14,19.14,19.14,0,0,0,1.53,7.62,19.81,19.81,0,0,0,10.47,10.47,19.64,19.64,0,0,0,15.08.05,19.47,19.47,0,0,0,6.19-4.11,20,20,0,0,0,4.28-6.19A21.92,21.92,0,0,0,1415,547.71Z" transform="translate(-48.47 -337.21)"/><path d="M1431.48,508.56a4.49,4.49,0,1,1,1.31,3.18A4.33,4.33,0,0,1,1431.48,508.56Zm1.09,15.68a3.4,3.4,0,1,1,6.8,0v46.49a3.4,3.4,0,1,1-6.8,0Z" transform="translate(-48.47 -337.21)"/><path d="M1451,507.47a3.4,3.4,0,1,1,6.8,0v63.26a3.4,3.4,0,1,1-6.8,0Z" transform="translate(-48.47 -337.21)"/><path d="M1473.91,550.89a18.4,18.4,0,0,0,2.3,6.52,19.73,19.73,0,0,0,10.2,8.66,19.82,19.82,0,0,0,14.47-.22,20.19,20.19,0,0,0,6.25-4.11,3.41,3.41,0,0,1,4.82,4.83,20.54,20.54,0,0,1-8.16,5.75,29.71,29.71,0,0,1-10.47,1.7,26.44,26.44,0,0,1-18.64-7.45,25.53,25.53,0,0,1-5.71-8.34,26.2,26.2,0,0,1-2.08-10.52,26.11,26.11,0,0,1,7.62-18.59,27.54,27.54,0,0,1,8.44-5.7,29.11,29.11,0,0,1,10.58-2.36,24.54,24.54,0,0,1,9.93,2.09,27.22,27.22,0,0,1,8.39,5.7,28.89,28.89,0,0,1,5.81,8.39,24.25,24.25,0,0,1,2.19,10.25,3,3,0,0,1-1.1,2.52,3.61,3.61,0,0,1-2.3.88Zm38.81-6.8a19.84,19.84,0,0,0-6.74-11.46,21.18,21.18,0,0,0-5.81-3.4,19.28,19.28,0,0,0-13.71,0,21.18,21.18,0,0,0-5.81,3.4,18.82,18.82,0,0,0-4.28,5.1,20.54,20.54,0,0,0-2.35,6.36Z" transform="translate(-48.47 -337.21)"/><path d="M582.2,540.71V655.37H696.86v-6.68A107.67,107.67,0,0,0,663.75,571V455.49L594.5,386.24l-63.42,63.41-15-15L501.8,448.89v-2.5a109.18,109.18,0,0,0-218.36,0v2.5l-14.26-14.26-15,15-63.41-63.41-69.26,69.25V571a107.67,107.67,0,0,0-33.11,77.73v6.68H203V519.66l66.15-66.14,14.26,14.26V680.84H501.8V467.78l14.26-14.26,66.14,66.14ZM595.56,642v-87.7a94.07,94.07,0,0,1,54.83,22.55v.42h.5q2.5,2.18,4.86,4.54A94.26,94.26,0,0,1,683.27,642Zm54.83-82a107.34,107.34,0,0,0-54.83-19.08V514.13l-55-55,54-54L650.39,461ZM488.44,471.41V667.48H296.8V446.39a95.82,95.82,0,0,1,191.64,0v25ZM134.84,577.28v-.42a94.07,94.07,0,0,1,54.83-22.55V642H102a94.19,94.19,0,0,1,27.51-60.19c1.57-1.58,3.2-3.09,4.86-4.54Zm54.83-63.15v26.79A107.34,107.34,0,0,0,134.84,560V461l55.9-55.9,54,54Z" transform="translate(-48.47 -337.21)"/><path d="M253.23,667.48H55.15a6.68,6.68,0,1,0,0,13.36H253.23a6.68,6.68,0,1,0,0-13.36Z" transform="translate(-48.47 -337.21)"/><path d="M730.08,667.48H532a6.68,6.68,0,1,0,0,13.36H730.08a6.68,6.68,0,0,0,0-13.36Z" transform="translate(-48.47 -337.21)"/><rect x="480.09" y="201.09" width="35.62" height="42.43"/><rect x="480.09" y="254.15" width="35.62" height="42.43"/><rect x="172.58" y="254.15" width="35.62" height="42.43"/><rect x="172.58" y="201.09" width="35.62" height="42.43"/><path class="cls-1" d="M356,514.74h73.16L392.6,451.38Z" transform="translate(-48.47 -337.21)"/><path class="cls-1" d="M418.92,470h0Z" transform="translate(-48.47 -337.21)"/><path class="cls-1" d="M419.59,469.65h0Z" transform="translate(-48.47 -337.21)"/><path class="cls-2" d="M419.85,469.43l-.26.22Z" transform="translate(-48.47 -337.21)"/><path class="cls-3" d="M472.52,601.38c0,1.82,0,3.64,0,5.46,0,.68-.2,1.06-.95,1.08a15.6,15.6,0,0,0-8.51,3.16,28.26,28.26,0,0,1-11.06,5c-7.65,1.39-14.89.46-21.51-3.87-.92-.6-1.83-1.2-2.75-1.78-5.72-3.55-11.45-3.57-17.1.08-3.58,2.31-7.14,4.6-11.4,5.46-7.9,1.58-15.36.66-22.2-3.85a43.15,43.15,0,0,0-3.89-2.47,14.91,14.91,0,0,0-15.34.52c-2.81,1.67-5.53,3.67-8.56,4.74a28.22,28.22,0,0,1-27-3.75,15.77,15.77,0,0,0-8.71-3.28c-.69,0-.9-.38-.9-1,0-3.68,0-7.36,0-11,0-1,.59-1.06,1.35-1a27.37,27.37,0,0,1,14.66,4.79,25.21,25.21,0,0,0,6.15,3.29A15,15,0,0,0,348,601a41,41,0,0,1,7.81-4.34,28,28,0,0,1,24.74,2.07c1.33.77,2.56,1.69,3.88,2.48,5.55,3.32,11.06,3.23,16.61-.07,2.91-1.73,5.77-3.77,8.93-4.8a28.3,28.3,0,0,1,25.8,3.56,22,22,0,0,0,6,3.1A14.76,14.76,0,0,0,454,601.27a90.24,90.24,0,0,1,8.56-4.73,21.66,21.66,0,0,1,8.62-1.73c.93,0,1.33.26,1.3,1.23,0,1.78,0,3.56,0,5.34Z" transform="translate(-48.47 -337.21)"/><path class="cls-3" d="M312.7,634.93c0-1.78,0-3.56,0-5.34,0-1,.27-1.26,1.25-1.23a27.52,27.52,0,0,1,14.78,4.8,24.91,24.91,0,0,0,6.16,3.29A15.24,15.24,0,0,0,348.78,634a27.07,27.07,0,0,1,10.33-4.9c7.87-1.61,15.35-.78,22.23,3.7,2.3,1.49,4.47,3.25,7.23,3.85a15.78,15.78,0,0,0,12.24-1.83c2.94-1.82,5.9-3.85,9.13-4.92a28.17,28.17,0,0,1,25.39,3.31,24.87,24.87,0,0,0,6.16,3.28,15.23,15.23,0,0,0,13.9-2.52,26.11,26.11,0,0,1,10.11-4.81c2-.39,4-.51,6-.76.72-.09,1,.21,1,1q0,5.52,0,11c0,.74-.23,1.1-1,1.12a14,14,0,0,0-7.77,2.75c-3.92,2.72-8,4.93-12.86,5.65a28.67,28.67,0,0,1-22.05-5.2,15.18,15.18,0,0,0-13.17-2.83,17,17,0,0,0-5.63,2.68,29.29,29.29,0,0,1-22.26,5.36,27.81,27.81,0,0,1-11.56-4.75c-2.35-1.58-4.7-3.13-7.63-3.51a15.8,15.8,0,0,0-10.81,2.16c-2.66,1.67-5.3,3.54-8.22,4.6A28.11,28.11,0,0,1,322.74,645c-2.81-1.93-5.7-3.55-9.23-3.57-.75,0-.81-.5-.81-1.07,0-1.82,0-3.64,0-5.46Z" transform="translate(-48.47 -337.21)"/><path d="M434.59,557.09v10.55c0,2.2-1.07,3.3-3.28,3.31q-7.51,0-15,0c-2.36,0-3.36-.94-3.38-3.32,0-7.15,0-14.31,0-21.47a2.62,2.62,0,0,1,2.94-2.81q7.95,0,15.89,0a2.6,2.6,0,0,1,2.85,2.88C434.6,549.89,434.59,553.49,434.59,557.09Z" transform="translate(-48.47 -337.21)"/><path d="M350.63,557c0-3.44,0-6.87,0-10.3,0-2.4.9-3.34,3.25-3.35h15.4c2,0,3,1,3,2.95q0,10.55,0,21.09c0,2.65-1,3.56-3.62,3.56H354c-2.36,0-3.41-1.08-3.41-3.41Z" transform="translate(-48.47 -337.21)"/><path d="M381.83,557.1c0-3.56,0-7.12,0-10.67,0-2.19.91-3.07,3.11-3.07h15.41c2.11,0,3,.91,3,3q0,10.74,0,21.47c0,2-.92,3-2.93,3.08q-7.81.09-15.64,0c-2.07,0-3-1.08-3-3.15Q381.82,562.44,381.83,557.1Z" transform="translate(-48.47 -337.21)"/><path d="M403.39,494.29q0,5.32,0,10.67c0,2.23-.92,3.16-3.17,3.16q-7.63,0-15.28,0c-2.16,0-3.08-.87-3.09-3q0-10.92,0-21.83a2.56,2.56,0,0,1,2.76-2.73q8,0,16,0a2.59,2.59,0,0,1,2.76,2.85c0,3.64,0,7.28,0,10.92Z" transform="translate(-48.47 -337.21)"/><path d="M472.05,562.68l-79.46-137.6L313.43,562.25a5.82,5.82,0,0,0-.7,2.62c-.08,2.75,0,5.5,0,8.25h0c0,2.91,0,5.82,0,8.74,0,1.41.18,1.51,1.58,1.16a6.49,6.49,0,0,0,4.18-3.23q5.54-9.62,11.09-19.21,9.13-15.8,18.24-31.6a1.85,1.85,0,0,1,1.81-1.09q43,0,86,0a1.74,1.74,0,0,1,1.74,1c1.93,3.41,3.89,6.8,5.85,10.2l23.61,40.83a6.21,6.21,0,0,0,4,3.08c1.45.36,1.66.22,1.66-1.24q0-8.67,0-17.35A3.55,3.55,0,0,0,472.05,562.68ZM356,514.74c12.22-21.16,24.3-42.09,36.57-63.36l36.59,63.36Z" transform="translate(-48.47 -337.21)"/><path class="cls-2" d="M471.44,507.69q-15-14.9-29.86-29.83c-1.71-1.72-3.41-3.45-5.15-5.14-.65-.62-.65-1-.17-1.84,2.22-3.69,4.35-7.44,6.45-11.22.43-.79.83-1,1.7-.77q9.54,2.6,19.09,5.13c2.46.66,4.91,1.34,7.38,2,1.42.36,1.61.18,1.62-1.3,0-3.48-.05-7,0-10.44a1.57,1.57,0,0,0-1.39-1.83c-7.47-2-14.92-4-22.37-6-.16,0-.32-.06-.48-.11-1.7-.48-1.55-.48-1.51-2.22.1-4,.08-8,0-12,0-1.15.09-1.7,1.35-2,7.17-1.84,14.3-3.78,21.44-5.71,2.06-.56,1.79-.42,1.34-2.14-.88-3.32-1.8-6.62-2.67-9.94-.23-.89-.65-1-1.49-.81-5.85,1.6-11.71,3.16-17.56,4.73-1.64.43-3.3.83-4.92,1.32a1,1,0,0,1-1.43-.65,51.8,51.8,0,0,0-6.64-11.52c-.66-.87-.18-1.29.35-1.81,5.37-5.38,10.73-10.77,16.13-16.1.77-.76.81-1.25.07-2-2.54-2.49-5.05-5-7.57-7.52-.64-.64-1.11-.64-1.79.05-5.31,5.38-10.68,10.71-16,16.08-.81.82-1.35,1-2.39.22a46.77,46.77,0,0,0-10.79-6.23c-.93-.38-1.19-.83-.92-1.82,2-7.33,3.94-14.68,5.94-22,.27-1,.13-1.5-.9-1.77-3.44-.9-6.87-1.84-10.3-2.77-.82-.23-1.27,0-1.49.89-1.94,7.35-3.92,14.68-5.84,22-.28,1.08-.65,1.4-1.89,1.36-2.07-.08-4.14-.1-6.21-.1s-4.14,0-6.21.1c-1.23,0-1.6-.28-1.89-1.36-1.92-7.35-3.9-14.68-5.84-22-.22-.86-.67-1.12-1.49-.89-3.43.93-6.86,1.87-10.3,2.77-1,.27-1.17.8-.9,1.77,2,7.33,3.94,14.68,5.94,22,.27,1,0,1.44-.92,1.82a46.77,46.77,0,0,0-10.79,6.23c-1,.8-1.58.6-2.39-.22-5.31-5.37-10.68-10.7-16-16.08-.68-.69-1.15-.69-1.79-.05q-3.76,3.78-7.57,7.52c-.73.72-.7,1.21.07,2,5.41,5.33,10.76,10.72,16.13,16.1.53.52,1,.94.36,1.81a51.84,51.84,0,0,0-6.65,11.52,1,1,0,0,1-1.43.65c-1.62-.49-3.27-.89-4.91-1.32-5.86-1.57-11.72-3.13-17.57-4.73-.84-.23-1.26-.08-1.49.81-.87,3.32-1.79,6.62-2.67,9.94-.45,1.72-.72,1.58,1.34,2.14,7.14,1.93,14.28,3.87,21.44,5.71,1.27.32,1.39.87,1.36,2q-.15,6,0,12c0,1.74.19,1.74-1.51,2.22-.16.05-.32.07-.47.11-7.46,2-14.91,4-22.37,6a1.57,1.57,0,0,0-1.4,1.83c.08,3.48,0,7,0,10.44,0,1.48.2,1.66,1.61,1.3,2.47-.63,4.93-1.31,7.39-2q9.54-2.55,19.08-5.13c.87-.24,1.27,0,1.71.77,2.09,3.78,4.23,7.53,6.45,11.22.47.8.47,1.22-.18,1.84-1.74,1.69-3.43,3.42-5.15,5.14q-14.92,14.92-29.86,29.83a3.36,3.36,0,0,0-1.08,2.66c.05,4.33,0,8.66,0,13,0,1.35.34,1.7,1.59,1.13a13.19,13.19,0,0,0,3.79-2.47q16.83-16.69,33.54-33.5c2.17-2.17,4.33-4.36,6.53-6.5.28-.27.78-.3,1.18-.44,0,.43-.08.86-.13,1.29l0,.09h0l7.34-12.74v0l-.08.14c-1.07-1-2-1.7-2.84-2.56-11.05-11.5-14.95-25-10.89-40.5A41.09,41.09,0,0,1,388,397.06a40.82,40.82,0,0,1,9.2,0,41.09,41.09,0,0,1,35.28,30.21c4.07,15.47.16,29-10.89,40.5-.82.86-1.77,1.6-2.84,2.56l-.07-.14,0,0L426,483h0a.29.29,0,0,1,0-.09c-.06-.43-.1-.86-.14-1.29.4.14.91.17,1.18.44,2.21,2.14,4.36,4.33,6.53,6.5q16.76,16.77,33.54,33.5a13.24,13.24,0,0,0,3.8,2.47c1.24.57,1.58.22,1.58-1.13,0-4.33,0-8.66,0-13A3.36,3.36,0,0,0,471.44,507.69Z" transform="translate(-48.47 -337.21)"/></svg>